<svg version="1.1" viewBox="0.0 0.0 449.40419947506564 308.742782152231" fill="none" stroke="none" stroke-linecap="square" stroke-miterlimit="10" xmlns:xlink="http://www.w3.org/1999/xlink" xmlns="http://www.w3.org/2000/svg"><clipPath id="p.0"><path d="m0 0l449.4042 0l0 308.74277l-449.4042 0l0 -308.74277z" clip-rule="nonzero"/></clipPath><g clip-path="url(#p.0)"><path fill="#000000" fill-opacity="0.0" d="m0 0l449.4042 0l0 308.74277l-449.4042 0z" fill-rule="evenodd"/><path fill="#eeeeee" d="m48.126877 105.233345l0 0c-3.4562454 -23.498596 7.8912926 -46.760784 29.227432 -59.915558c21.336136 -13.15477 48.918976 -13.895067 71.04411 -1.9067535l0 0c7.837387 -13.663057 22.182114 -23.096457 38.69516 -25.446777c16.513046 -2.3503208 33.254913 2.658493 45.161484 13.511372l0 0c6.6764526 -12.387808 19.785782 -20.71083 34.676117 -22.01563c14.89035 -1.3047981 29.454346 4.5932894 38.523926 15.601316l0 0c12.062012 -13.131044 31.25293 -18.65976 49.26877 -14.193841c18.01587 4.4659195 31.62082 18.124355 34.927917 35.065224l0 0c14.777985 3.7292747 27.087738 13.209579 33.74881 25.991505c6.661072 12.781937 7.02005 27.61161 0.98413086 40.657516l0 0c14.552002 17.522087 17.956085 40.87005 8.941895 61.33085c-9.014191 20.460785 -29.092346 34.96042 -52.7417 38.08789c-0.16668701 19.203186 -11.550232 36.823807 -29.76294 46.0701c-18.212708 9.246277 -40.410583 8.674377 -58.03763 -1.4952393c-7.508148 22.999146 -28.641174 39.92169 -54.26877 43.456482c-25.627594 3.53479 -51.155518 -6.9518433 -65.554794 -26.929321c-17.650482 9.846954 -38.82959 12.683563 -58.75975 7.8699036c-19.930168 -4.813629 -36.932556 -16.87204 -47.171776 -33.45508l0 0c-18.03658 1.9526978 -35.47546 -6.692749 -43.66179 -21.64563c-8.186326 -14.952881 -5.377426 -33.03009 7.032652 -45.259964l0 0c-16.089096 -8.76091 -24.298721 -26.145447 -20.347881 -43.088257c3.950841 -16.942825 19.166874 -29.604622 37.713535 -31.382767z" fill-rule="evenodd"/><path fill="#000000" fill-opacity="0.0" d="m30.404694 180.61003l0 0c7.592495 4.1342926 16.363602 6.0097046 25.135666 5.3744354m11.489517 61.532654c3.7723083 -0.4084015 7.469887 -1.2732391 10.997383 -2.5722198m94.92887 28.156326c-2.6531982 -3.6810303 -4.874588 -7.6145325 -6.6263275 -11.73349m126.4545 -4.794342l0 0c1.3688354 -4.1931 2.2557373 -8.5086975 2.645874 -12.874786m85.15137 -31.698486c0.17745972 -20.444763 -12.374054 -39.164185 -32.263306 -48.117752m76.06268 -51.29882c-3.2210083 6.9618225 -8.138214 13.137566 -14.366089 18.043007m-20.36383 -84.693855l0 0c0.5488281 2.8113441 0.8027954 5.66494 0.75845337 8.521236m-84.953705 -29.391771l0 0c-3.0088806 3.2755432 -5.487793 6.9359207 -7.359558 10.867159m-65.8412 -4.454275l0 0c-1.6034546 2.975153 -2.800827 6.123373 -3.564499 9.372137m-80.293365 2.5635185l0 0c4.681656 2.5367203 9.012833 5.5899315 12.898376 9.092571m-113.168625 52.73007l0 0c0.47636032 3.2387161 1.2290344 6.4375 2.2509727 9.5664215" fill-rule="evenodd"/><path stroke="#134f5c" stroke-width="8.0" stroke-linejoin="round" stroke-linecap="butt" d="m48.126877 105.233345l0 0c-3.4562454 -23.498596 7.8912926 -46.760784 29.227432 -59.915558c21.336136 -13.15477 48.918976 -13.895067 71.04411 -1.9067535l0 0c7.837387 -13.663057 22.182114 -23.096457 38.69516 -25.446777c16.513046 -2.3503208 33.254913 2.658493 45.161484 13.511372l0 0c6.6764526 -12.387808 19.785782 -20.71083 34.676117 -22.01563c14.89035 -1.3047981 29.454346 4.5932894 38.523926 15.601316l0 0c12.062012 -13.131044 31.25293 -18.65976 49.26877 -14.193841c18.01587 4.4659195 31.62082 18.124355 34.927917 35.065224l0 0c14.777985 3.7292747 27.087738 13.209579 33.74881 25.991505c6.661072 12.781937 7.02005 27.61161 0.98413086 40.657516l0 0c14.552002 17.522087 17.956085 40.87005 8.941895 61.33085c-9.014191 20.460785 -29.092346 34.96042 -52.7417 38.08789c-0.16668701 19.203186 -11.550232 36.823807 -29.76294 46.0701c-18.212708 9.246277 -40.410583 8.674377 -58.03763 -1.4952393c-7.508148 22.999146 -28.641174 39.92169 -54.26877 43.456482c-25.627594 3.53479 -51.155518 -6.9518433 -65.554794 -26.929321c-17.650482 9.846954 -38.82959 12.683563 -58.75975 7.8699036c-19.930168 -4.813629 -36.932556 -16.87204 -47.171776 -33.45508l0 0c-18.03658 1.9526978 -35.47546 -6.692749 -43.66179 -21.64563c-8.186326 -14.952881 -5.377426 -33.03009 7.032652 -45.259964l0 0c-16.089096 -8.76091 -24.298721 -26.145447 -20.347881 -43.088257c3.950841 -16.942825 19.166874 -29.604622 37.713535 -31.382767z" fill-rule="evenodd"/><path stroke="#134f5c" stroke-width="8.0" stroke-linejoin="round" stroke-linecap="butt" d="m30.404694 180.61003l0 0c7.592495 4.1342926 16.363602 6.0097046 25.135666 5.3744354m11.489517 61.532654c3.7723083 -0.4084015 7.469887 -1.2732391 10.997383 -2.5722198m94.92887 28.156326c-2.6531982 -3.6810303 -4.874588 -7.6145325 -6.6263275 -11.73349m126.4545 -4.794342l0 0c1.3688354 -4.1931 2.2557373 -8.5086975 2.645874 -12.874786m85.15137 -31.698486c0.17745972 -20.444763 -12.374054 -39.164185 -32.263306 -48.117752m76.06268 -51.29882c-3.2210083 6.9618225 -8.138214 13.137566 -14.366089 18.043007m-20.36383 -84.693855l0 0c0.5488281 2.8113441 0.8027954 5.66494 0.75845337 8.521236m-84.953705 -29.391771l0 0c-3.0088806 3.2755432 -5.487793 6.9359207 -7.359558 10.867159m-65.8412 -4.454275l0 0c-1.6034546 2.975153 -2.800827 6.123373 -3.564499 9.372137m-80.293365 2.5635185l0 0c4.681656 2.5367203 9.012833 5.5899315 12.898376 9.092571m-113.168625 52.73007l0 0c0.47636032 3.2387161 1.2290344 6.4375 2.2509727 9.5664215" fill-rule="evenodd"/></g></svg>